HIERARCHY
ROOT hip
{
  OFFSET 0 0 0
  CHANNELS 6 Xposition Yposition Zposition Zrotation Yrotation Xrotation
  JOINT abdomen
  {
    OFFSET 0 20.6881 -0.73152
    CHANNELS 3 Zrotation Xrotation Yrotation
    JOINT chest
    {
      OFFSET 0 11.7043 -0.48768
      CHANNELS 3 Zrotation Xrotation Yrotation
      JOINT neck
      {
        OFFSET 0 22.1894 -2.19456
        CHANNELS 3 Zrotation Xrotation Yrotation
        JOINT head
        {
          OFFSET -0.24384 7.07133 1.2192
          CHANNELS 3 Zrotation Xrotation Yrotation
          JOINT leftEye
          {
            OFFSET 4.14528 8.04674 8.04672
            CHANNELS 3 Zrotation Xrotation Yrotation
            End Site
            {
              OFFSET 1 0 0
            }
          }
          JOINT rightEye
          {
            OFFSET -3.6576 8.04674 8.04672
            CHANNELS 3 Zrotation Xrotation Yrotation
            End Site
            {
              OFFSET 1 0 0
            }
          }
        }
      }
      JOINT rCollar
      {
        OFFSET -2.68224 19.2634 -4.8768
        CHANNELS 3 Zrotation Xrotation Yrotation
        JOINT rShldr
        {
          OFFSET -8.77824 -1.95073 1.46304
          CHANNELS 3 Zrotation Xrotation Yrotation
          JOINT rForeArm
          {
            OFFSET -28.1742 -1.7115 0.48768
            CHANNELS 3 Zrotation Xrotation Yrotation
            JOINT rHand
            {
              OFFSET -22.5879 0.773209 7.07136
              CHANNELS 3 Zrotation Xrotation Yrotation
              JOINT rThumb1
              {
                OFFSET -1.2192 -0.487915 3.41376
                CHANNELS 3 Zrotation Xrotation Yrotation
                JOINT rThumb2
                {
                  OFFSET -3.37035 -0.52449 3.41376
                  CHANNELS 3 Zrotation Xrotation Yrotation
                  End Site
                  {
                    OFFSET -1.78271 -1.18214 1.43049
                  }
                }
              }
              JOINT rIndex1
              {
                OFFSET -7.75947 0.938293 5.60832
                CHANNELS 3 Zrotation Xrotation Yrotation
                JOINT rIndex2
                {
                  OFFSET -2.54057 -0.884171 1.56538
                  CHANNELS 3 Zrotation Xrotation Yrotation
                  End Site
                  {
                    OFFSET -1.62519 -0.234802 1.16502
                  }
                }
              }
              JOINT rMid1
              {
                OFFSET -8.24714 1.18213 3.41376
                CHANNELS 3 Zrotation Xrotation Yrotation
                JOINT rMid2
                {
                  OFFSET -3.10165 -0.590103 1.0647
                  CHANNELS 3 Zrotation Xrotation Yrotation
                  End Site
                  {
                    OFFSET -2.48547 -0.328903 0.83742
                  }
                }
              }
              JOINT rRing1
              {
                OFFSET -8.82822 0.546677 1.51678
                CHANNELS 3 Zrotation Xrotation Yrotation
                JOINT rRing2
                {
                  OFFSET -2.60934 -0.819778 -0.0198488
                  CHANNELS 3 Zrotation Xrotation Yrotation
                  End Site
                  {
                    OFFSET -2.33842 -0.294052 0.168128
                  }
                }
              }
              JOINT rPinky1
              {
                OFFSET -8.27202 -0.0477905 -0.4584
                CHANNELS 3 Zrotation Xrotation Yrotation
                JOINT rPinky2
                {
                  OFFSET -1.82734 -0.647385 -0.700984
                  CHANNELS 3 Zrotation Xrotation Yrotation
                  End Site
                  {
                    OFFSET -1.69225 -0.51767 -0.607171
                  }
                }
              }
            }
          }
        }
      }
      JOINT lCollar
      {
        OFFSET 2.68224 19.2634 -4.8768
        CHANNELS 3 Zrotation Xrotation Yrotation
        JOINT lShldr
        {
          OFFSET 8.77824 -1.95073 1.46304
          CHANNELS 3 Zrotation Xrotation Yrotation
          JOINT lForeArm
          {
            OFFSET 28.1742 -1.7115 0.48768
            CHANNELS 3 Zrotation Xrotation Yrotation
            JOINT lHand
            {
              OFFSET 22.5879 0.773209 7.07136
              CHANNELS 3 Zrotation Xrotation Yrotation
              JOINT lThumb1
              {
                OFFSET 1.2192 -0.487915 3.41376
                CHANNELS 3 Zrotation Xrotation Yrotation
                JOINT lThumb2
                {
                  OFFSET 3.37035 -0.52449 3.41376
                  CHANNELS 3 Zrotation Xrotation Yrotation
                  End Site
                  {
                    OFFSET 1.78271 -1.18214 1.43049
                  }
                }
              }
              JOINT lIndex1
              {
                OFFSET 7.75947 0.938293 5.60832
                CHANNELS 3 Zrotation Xrotation Yrotation
                JOINT lIndex2
                {
                  OFFSET 2.54057 -0.884171 1.56538
                  CHANNELS 3 Zrotation Xrotation Yrotation
                  End Site
                  {
                    OFFSET 1.62519 -0.234802 1.16502
                  }
                }
              }
              JOINT lMid1
              {
                OFFSET 8.24714 1.18213 3.41376
                CHANNELS 3 Zrotation Xrotation Yrotation
                JOINT lMid2
                {
                  OFFSET 3.10165 -0.590103 1.0647
                  CHANNELS 3 Zrotation Xrotation Yrotation
                  End Site
                  {
                    OFFSET 2.48547 -0.328903 0.83742
                  }
                }
              }
              JOINT lRing1
              {
                OFFSET 8.82822 0.546677 1.51678
                CHANNELS 3 Zrotation Xrotation Yrotation
                JOINT lRing2
                {
                  OFFSET 2.60934 -0.819778 -0.0198488
                  CHANNELS 3 Zrotation Xrotation Yrotation
                  End Site
                  {
                    OFFSET 2.33842 -0.294052 0.168128
                  }
                }
              }
              JOINT lPinky1
              {
                OFFSET 8.27202 -0.0477905 -0.4584
                CHANNELS 3 Zrotation Xrotation Yrotation
                JOINT lPinky2
                {
                  OFFSET 1.82734 -0.647385 -0.700984
                  CHANNELS 3 Zrotation Xrotation Yrotation
                  End Site
                  {
                    OFFSET 1.69225 -0.51767 -0.607171
                  }
                }
              }
            }
          }
        }
      }
    }
  }
  JOINT rButtock
  {
    OFFSET -8.77824 4.35084 1.2192
    CHANNELS 3 Zrotation Xrotation Yrotation
    JOINT rThigh
    {
      OFFSET 0 -1.70687 -2.19456
      CHANNELS 3 Zrotation Xrotation Yrotation
      JOINT rShin
      {
        OFFSET 0 -36.8199 0.73152
        CHANNELS 3 Zrotation Xrotation Yrotation
        JOINT rFoot
        {
          OFFSET 0.73152 -45.1104 -5.12064
          CHANNELS 3 Zrotation Xrotation Yrotation
          End Site
          {
            OFFSET -1.1221 -3.69964 12.103
          }
        }
      }
    }
  }
  JOINT lButtock
  {
    OFFSET 8.77824 4.35084 1.2192
    CHANNELS 3 Zrotation Xrotation Yrotation
    JOINT lThigh
    {
      OFFSET 0 -1.70687 -2.19456
      CHANNELS 3 Zrotation Xrotation Yrotation
      JOINT lShin
      {
        OFFSET 0 -36.8199 0.73152
        CHANNELS 3 Zrotation Xrotation Yrotation
        JOINT lFoot
        {
          OFFSET -0.73152 -45.1104 -5.12064
          CHANNELS 3 Zrotation Xrotation Yrotation
          End Site
          {
            OFFSET 1.1221 -3.69964 12.103
          }
        }
      }
    }
  }
}
MOTION
Frames:	4
Frame Time:	0.03333
0.0 0.0 0.0 0.0 0.0 0.0 0.0 0.0 0.0 0.0 0.0 0.0 0.0 0.0 0.0 0.0 0.0 0.0 0.0 0.0 0.0 0.0 0.0 0.0 0.0 0.0 0.0 0.0 0.0 0.0 0.0 0.0 0.0 0.0 0.0 0.0 0.0 0.0 0.0 0.0 0.0 0.0 0.0 0.0 0.0 0.0 0.0 0.0 0.0 0.0 0.0 0.0 0.0 0.0 0.0 0.0 0.0 0.0 0.0 0.0 0.0 0.0 0.0 0.0 0.0 0.0 0.0 0.0 0.0 0.0 0.0 0.0 0.0 0.0 0.0 0.0 0.0 0.0 0.0 0.0 0.0 0.0 0.0 0.0 0.0 0.0 0.0 0.0 0.0 0.0 0.0 0.0 0.0 0.0 0.0 0.0 0.0 0.0 0.0 0.0 0.0 0.0 0.0 0.0 0.0 0.0 0.0 0.0 0.0 0.0 0.0 0.0 0.0 0.0 0.0 0.0 0.0 0.0 0.0 0.0 0.0 0.0 0.0 0.0 0.0 0.0 0.0 0.0 0.0 0.0 0.0 0.0
-0.1026 16.4246 0.07150000000000001 0.302728 -27.526974 -0.459296 -0.342967 3.605185 -0.0 -12.325585 -7.068273 42.16666 -160.695941 -0.388478 62.868596 97.145159 -82.939875 -6.096643 -9.88684 -0.905882 10.444593 -10.109083 -0.914001 10.306108 -71.549343 -45.022582 -179.631672 -169.089999 0.440121 178.928353 -142.08957 -83.043736 11.83061 16.834991 -33.164702 -108.420052 -79.175036 -45.245831 -129.838087 -49.907735 12.249458 27.254539 -13.924869 1.915522 -71.971061 176.159889 -40.93092 108.754156 -83.732537 -39.866647 -106.693731 -87.753736 63.769358 80.886646 -94.052616 -33.559193 -95.861656 -77.446585 82.816334 90.009754 81.643708 68.192488 -58.976687 -147.671263 11.203982 -141.05517 -51.020833 39.738204 -12.01333 -21.618883 -43.398398 -9.6656 178.260433 29.81949 14.712232 155.92193 45.395882 28.638348 172.836777 -36.193256 -129.857698 111.661534 -0.372711 -75.183499 46.350831 61.503586 -8.896602 -119.498078 -65.470228 -63.314853 14.635979 1.092617 15.978403 176.846502 -42.202786 -142.655824 87.112498 -77.210714 82.168998 -9.546111 7.479551 4.393299 22.775312 1.7059 -22.839866 147.071153 12.547416 146.194459 0.033553 -49.406975 -0.002592 1.815219 50.512941 -1.378184 -6.858631 5.276042 -93.703842 90.179635 -9.739653 -86.894913 -30.011708 -32.536949 -36.478048 9.758914 38.488009 164.55144 1.589623 -13.567527 -35.75313 -24.452901 59.067357 -73.58397
0.3196 32.7376 0.1534 -178.957217 42.782349 178.714192 -10.33098 30.392351 -110.324852 43.265923 25.958298 109.109143 160.49401 51.055877 -127.493761 -78.306014 -39.881049 -137.990016 -48.684352 -4.490128 9.905382 -57.287579 -6.842505 12.492435 -134.542169 6.856309 -177.621683 -17.216423 29.458057 1.485427 70.493701 -58.536072 -64.724197 159.318175 23.716283 150.03385 -77.89651 37.092853 65.626977 46.920562 -18.387186 66.94884 32.953626 56.283018 21.473873 22.868544 30.618446 34.820685 112.061116 58.957263 -23.187378 -92.016415 -82.442984 -93.426253 -48.410753 -3.790042 -160.188157 -86.625109 82.396524 85.991915 112.122119 -6.568024 -11.380805 -157.055768 33.561161 -155.017074 11.185831 68.097956 -39.720458 -57.450718 1.569917 -39.634461 -171.546481 35.547879 -17.636929 154.829164 42.129832 -85.31622 164.151482 19.15056 -117.857307 -13.240518 -18.96201 -92.647008 -122.216505 72.644861 128.120598 151.835444 -67.311934 -108.542317 -64.141166 24.62006 94.845199 -4.85877 -52.376368 -9.749338 95.594227 -26.535597 106.203392 167.040752 -0.935232 -173.545728 131.689877 14.943154 86.326034 -19.496508 -14.465541 18.503949 -82.6165 10.964871 -27.087097 120.524746 -15.79684 68.296965 60.335547 40.268719 -26.832256 -78.941774 -67.081919 -163.923336 -59.505187 48.081821 -41.953921 60.510435 -31.04093 124.710571 79.238072 4.291626 89.779491 156.961399 -12.86439 77.356969
0.3927 29.2471 0.3831 -179.108723 41.965622 -179.710511 -10.169992 24.833505 -0.0 19.672293 -51.844574 19.952245 178.840895 21.863966 93.693555 95.958884 16.252104 35.901383 -61.90669 14.582154 -24.084672 -58.189782 11.557236 -20.614039 -110.592848 -25.959622 -156.089952 -23.971951 -27.618284 -17.941024 108.499568 -29.231529 -78.729719 174.567816 61.17571 158.138885 -81.554805 9.983768 100.664933 148.624665 -15.963473 73.378509 -9.897445 -63.760471 -178.840515 -1.675626 0.9852 -6.368568 123.870014 -1.720936 -22.333601 -173.837829 -4.357405 144.852072 122.927107 8.935983 -11.297031 -5.069533 -26.319988 -4.350002 -34.507736 33.854995 -147.70818 177.615056 49.478517 -141.602834 67.369857 79.437035 -105.401523 102.85659 16.214014 -127.521324 178.74707 -21.892043 54.328208 20.367382 -24.185709 51.920918 10.94393 -4.04261 24.353398 149.258023 6.915242 164.218922 167.369892 1.606607 162.738855 -4.450335 1.886566 -20.880005 -38.331185 53.38937 79.029099 4.646443 -21.244245 -3.100692 10.426589 5.515743 27.525231 -9.43108 11.16683 14.527675 154.656421 1.884637 87.639291 1.926597 -4.946995 20.16531 -14.413564 5.072363 20.513611 40.772395 -61.469864 113.936708 74.209645 0.442027 97.284763 -98.042854 76.491612 -154.694322 109.820809 49.82552 46.135082 179.109105 40.257685 1.378457 14.148529 68.727347 86.769237 102.119917 -9.538545 44.997977
